HIERARCHY
ROOT Hips
{
 OFFSET 0.000000 0.000000 0.000000
 CHANNELS 6 Xposition Yposition Zposition Yrotation Xrotation Zrotation
 JOINT Chest
 {
  OFFSET 0.000000 9.585900 0.002600
  CHANNELS 3 Yrotation Xrotation Zrotation
  JOINT Chest2
  {
   OFFSET 0.000000 9.601200 -0.005300
   CHANNELS 3 Yrotation Xrotation Zrotation
   JOINT Chest3
   {
    OFFSET 0.000000 9.561800 0.000000
    CHANNELS 3 Yrotation Xrotation Zrotation
    JOINT Chest4
    {
     OFFSET 0.000000 9.552100 0.000000
     CHANNELS 3 Yrotation Xrotation Zrotation
     JOINT Neck
     {
      OFFSET 0.000000 14.453000 0.000000
      CHANNELS 3 Yrotation Xrotation Zrotation
      JOINT Head
      {
       OFFSET 0.000000 8.936500 -0.011300
       CHANNELS 3 Yrotation Xrotation Zrotation
       End Site
       {
        OFFSET 0.000000 17.073600 -0.006000
       }
      }
     }
     JOINT RightCollar
     {
      OFFSET -2.921100 9.558500 0.000000
      CHANNELS 3 Yrotation Xrotation Zrotation
      JOINT RightShoulder
      {
       OFFSET -13.519700 0.000000 0.000000
       CHANNELS 3 Yrotation Xrotation Zrotation
       JOINT RightElbow
       {
        OFFSET 0.000000 -29.696600 0.000000
        CHANNELS 3 Yrotation Xrotation Zrotation
        JOINT RightWrist
        {
         OFFSET 0.000000 -24.004700 0.000000
         CHANNELS 3 Yrotation Xrotation Zrotation
         End Site
         {
          OFFSET 0.000000 -17.728500 0.000000
         }
        }
       }
      }
     }
     JOINT LeftCollar
     {
      OFFSET 2.921100 9.558500 0.000000
      CHANNELS 3 Yrotation Xrotation Zrotation
      JOINT LeftShoulder
      {
       OFFSET 13.519700 0.000000 0.000000
       CHANNELS 3 Yrotation Xrotation Zrotation
       JOINT LeftElbow
       {
        OFFSET 0.000000 -29.696600 0.000000
        CHANNELS 3 Yrotation Xrotation Zrotation
        JOINT LeftWrist
        {
         OFFSET 0.000000 -24.004700 0.000000
         CHANNELS 3 Yrotation Xrotation Zrotation
         End Site
         {
          OFFSET 0.000000 -17.728500 0.000000
         }
        }
       }
      }
     }
    }
   }
  }
 }
 JOINT RightHip
 {
  OFFSET -7.771700 -0.012900 -0.001300
  CHANNELS 3 Yrotation Xrotation Zrotation
  JOINT RightKnee
  {
   OFFSET 0.000000 -40.869800 0.001200
   CHANNELS 3 Yrotation Xrotation Zrotation
   JOINT RightAnkle
   {
    OFFSET 0.000000 -39.717900 0.002100
    CHANNELS 3 Yrotation Xrotation Zrotation
    JOINT RightToe
    {
     OFFSET 0.000000 -4.965400 11.033500
     CHANNELS 3 Yrotation Xrotation Zrotation
     End Site
     {
      OFFSET 0.000000 -1.423100 5.872300
     }
    }
   }
  }
 }
 JOINT LeftHip
 {
  OFFSET 7.771700 -0.012900 -0.001300
  CHANNELS 3 Yrotation Xrotation Zrotation
  JOINT LeftKnee
  {
   OFFSET 0.000000 -40.869800 0.001200
   CHANNELS 3 Yrotation Xrotation Zrotation
   JOINT LeftAnkle
   {
    OFFSET 0.000000 -39.717900 0.002100
    CHANNELS 3 Yrotation Xrotation Zrotation
    JOINT LeftToe
    {
     OFFSET 0.000000 -4.965400 11.033500
     CHANNELS 3 Yrotation Xrotation Zrotation
     End Site
     {
      OFFSET 0.000000 -1.423100 5.872300
     }
    }
   }
  }
 }
}
MOTION
Frames: 9
Frame Time: 0.008333
-193.333654 57.496899 -61.409928 158.025019 -11.005605 0.355150 4.135059 7.364592 1.348841 0.195938 0.371921 0.020602 0.343037 0.649465 0.036819 3.716284 6.962632 0.608172 1.315316 19.650360 -0.619649 2.590346 0.721175 -1.536189 1.339357 8.679690 -0.185365 -6.644495 -7.202260 -6.000562 -93.423464 -81.851841 115.095169 -5.019573 0.981051 -27.476267 -4.738257 8.135910 -2.332510 17.984089 -4.256880 2.547736 81.592442 -78.454898 -111.165241 -2.557630 8.546666 11.648097 -12.749523 -61.176888 6.644788 -30.056747 71.669532 -30.865802 -3.434440 -5.501725 -1.449556 -0.130259 0.764341 -0.066624 -0.390188 -63.346396 17.947450 40.389815 65.910103 33.436801 -16.639775 -8.878426 3.928037 -0.334188 -0.880831 -0.147550
-193.333019 57.495860 -61.408891 158.023144 -11.010188 0.356056 4.137068 7.366480 1.347175 0.195220 0.373702 0.021639 0.345035 0.649304 0.035552 3.717271 6.963184 0.606773 1.312993 19.653975 -0.632111 2.593059 0.724433 -1.538181 1.344447 8.668785 -0.197429 -6.640399 -7.192069 -5.995270 -93.434672 -81.863372 115.130570 -5.030150 0.977616 -27.492870 -4.741375 8.126535 -2.311918 17.937769 -4.261047 2.570284 81.571195 -78.431843 -111.106086 -2.579190 8.545020 11.636369 -12.765210 -61.173499 6.657387 -30.048473 71.672606 -30.862613 -3.426132 -5.499911 -1.448727 -0.136101 0.762273 -0.070134 -0.388411 -63.342641 17.945468 40.391364 65.911521 33.437713 -16.627549 -8.887936 3.928908 -0.332439 -0.879940 -0.146491
-193.332491 57.494685 -61.408104 158.024105 -11.015917 0.359087 4.136908 7.371760 1.343777 0.196634 0.373069 0.020923 0.344372 0.648939 0.034732 3.717317 6.964353 0.608055 1.311892 19.652922 -0.638114 2.587641 0.730604 -1.554393 1.354322 8.657095 -0.210860 -6.642706 -7.181551 -5.989851 -93.442417 -81.883737 115.165174 -5.037825 0.976945 -27.486554 -4.743932 8.124098 -2.305374 17.916840 -4.270377 2.582249 81.573402 -78.441096 -111.103941 -2.593832 8.543779 11.632343 -12.793338 -61.169479 6.668735 -30.023075 71.682356 -30.840209 -3.412816 -5.503196 -1.456237 -0.141349 0.761622 -0.073243 -0.387188 -63.339013 17.942931 40.399033 65.914525 33.441609 -16.626420 -8.892196 3.931075 -0.339339 -0.891838 -0.144827
-193.332375 57.493138 -61.406098 158.024905 -11.013581 0.362908 4.138222 7.365098 1.334742 0.195321 0.376983 0.023619 0.344916 0.646324 0.034749 3.717129 6.967197 0.609685 1.311575 19.648251 -0.644031 2.585951 0.735103 -1.553543 1.360304 8.651143 -0.216873 -6.601105 -7.198546 -6.023816 -93.261100 -81.871353 114.973260 -5.033958 0.981438 -27.490928 -4.747090 8.102956 -2.284783 17.898581 -4.258884 2.586076 81.738169 -78.493500 -111.277139 -2.565230 8.559234 11.644810 -12.802075 -61.175815 6.664239 -30.000589 71.693009 -30.801536 -3.421820 -5.505476 -1.480733 -0.128941 0.759744 -0.068268 -0.383570 -63.343379 17.940374 40.410027 65.915007 33.449718 -16.655815 -8.897131 3.935243 -0.330511 -0.892854 -0.145775
-193.330732 57.491759 -61.404683 158.023532 -11.017732 0.360790 4.141297 7.365558 1.334992 0.195445 0.376351 0.023702 0.345571 0.646614 0.034806 3.721804 6.964616 0.610326 1.306777 19.649107 -0.646087 2.578725 0.735170 -1.562543 1.363749 8.650416 -0.221315 -6.599742 -7.196842 -6.026289 -93.196977 -81.878154 114.928764 -5.035941 0.979507 -27.493055 -4.753005 8.095990 -2.272400 17.880468 -4.254244 2.593182 81.839955 -78.526306 -111.373310 -2.576666 8.568782 11.639297 -12.818684 -61.173961 6.670831 -29.975792 71.704686 -30.763564 -3.429153 -5.505838 -1.496343 -0.127704 0.755733 -0.068255 -0.379826 -63.343287 17.945145 40.401825 65.921132 33.444963 -16.672983 -8.902507 3.935106 -0.311979 -0.893634 -0.141930
-193.328495 57.490380 -61.402744 158.017765 -11.020023 0.355451 4.149115 7.365007 1.339761 0.198541 0.371620 0.020494 0.344460 0.649932 0.037552 3.724768 6.961815 0.611574 1.304235 19.647487 -0.650566 2.571183 0.733095 -1.568340 1.371273 8.643659 -0.230108 -6.601251 -7.188599 -6.025466 -93.149443 -81.873804 114.876344 -5.023099 0.984840 -27.464224 -4.758913 8.095419 -2.265346 17.874315 -4.249513 2.594616 81.973652 -78.570582 -111.509947 -2.589246 8.579158 11.631400 -12.839775 -61.171666 6.687352 -29.952664 71.712799 -30.734373 -3.414605 -5.505708 -1.497902 -0.135502 0.753388 -0.076870 -0.373752 -63.344151 17.950763 40.392222 65.924360 33.441495 -16.671045 -8.915405 3.935518 -0.312350 -0.884451 -0.141816
-193.326953 57.488903 -61.399887 158.016334 -11.015592 0.351164 4.151600 7.359504 1.343383 0.200494 0.368016 0.019675 0.345080 0.649956 0.037568 3.731157 6.960416 0.611660 1.298854 19.642830 -0.655307 2.563543 0.730293 -1.573118 1.375396 8.622908 -0.246768 -6.589034 -7.175977 -6.023909 -92.993049 -81.877150 114.730541 -5.009186 0.985708 -27.439015 -4.768356 8.094199 -2.257273 17.849740 -4.254782 2.610786 82.084006 -78.602450 -111.606864 -2.600064 8.586441 11.626350 -12.855986 -61.175663 6.700199 -29.945707 71.713998 -30.717851 -3.410652 -5.504300 -1.506225 -0.132914 0.751803 -0.077275 -0.365544 -63.353093 17.952566 40.378092 65.928285 33.431141 -16.673808 -8.921257 3.939289 -0.314709 -0.880013 -0.142159
-193.324947 57.487655 -61.397301 158.012407 -11.014098 0.345270 4.160369 7.352702 1.348108 0.197057 0.370389 0.021814 0.345401 0.649986 0.037586 3.747130 6.950948 0.611716 1.283394 19.650223 -0.655019 2.554716 0.722113 -1.581366 1.364472 8.619007 -0.254548 -6.551731 -7.186027 -6.044974 -92.789615 -81.888045 114.540366 -5.038085 0.965812 -27.484595 -4.785546 8.095000 -2.247529 17.822081 -4.260072 2.638169 82.188355 -78.622332 -111.697879 -2.606245 8.591757 11.622979 -12.870760 -61.175629 6.714620 -29.944746 71.713010 -30.704954 -3.406717 -5.503145 -1.518759 -0.129090 0.750878 -0.074636 -0.355804 -63.356002 17.955251 40.372079 65.924427 33.432705 -16.689184 -8.936068 3.936365 -0.305315 -0.870189 -0.138689
-193.325038 57.486726 -61.396370 158.001932 -11.017921 0.355764 4.167544 7.350377 1.340317 0.198044 0.374812 0.021868 0.345742 0.650000 0.037657 3.750940 6.950493 0.612374 1.279386 19.648755 -0.657271 2.542970 0.714086 -1.590447 1.363674 8.614295 -0.260984 -6.539683 -7.190284 -6.056195 -92.706324 -81.892385 114.465050 -5.040826 0.970165 -27.477184 -4.789508 8.076094 -2.228418 17.817077 -4.240082 2.635594 82.330880 -78.660946 -111.849673 -2.593071 8.601002 11.625562 -12.876064 -61.173022 6.706707 -29.895005 71.721660 -30.658652 -3.378877 -5.506608 -1.516671 -0.161829 0.754577 -0.085514 -0.307062 -63.356922 17.922261 40.363307 65.928780 33.432001 -16.698496 -8.940830 3.937296 -0.285831 -0.873131 -0.134036
